<?xml version="1.0" encoding="us-ascii" standalone="no"?><svg xmlns="http://www.w3.org/2000/svg" xmlns:xlink="http://www.w3.org/1999/xlink" contentStyleType="text/css" height="2095px" preserveAspectRatio="none" style="width:1023px;height:2095px;background:#FFFFFF;" version="1.1" viewBox="0 0 1023 2095" width="1023px" zoomAndPan="magnify"><defs/><g><rect fill="#F0F8FF" height="2083.0767" style="stroke:#181818;stroke-width:0.5;" width="175" x="469" y="6"/><text fill="#000000" font-family="sans-serif" font-size="13" font-weight="bold" lengthAdjust="spacing" textLength="90" x="511.5" y="19.897">EU-Webportal</text><rect fill="#FFFAF0" height="2083.0767" style="stroke:#181818;stroke-width:0.5;" width="97" x="646" y="6"/><text fill="#000000" font-family="sans-serif" font-size="13" font-weight="bold" lengthAdjust="spacing" textLength="86" x="651.5" y="19.897">NCPeH-Proxy</text><rect fill="none" height="118.5301" style="stroke:#000000;stroke-width:1.5;" width="441.5" x="208.5" y="736.6003"/><rect fill="#FFE4E1" height="82.118" style="stroke:#000000;stroke-width:1.5;" width="257" x="208.5" y="949.2484"/><rect fill="none" height="282.0602" style="stroke:#000000;stroke-width:1.5;" width="717" x="198.5" y="1225.9645"/><rect fill="none" height="86.8241" style="stroke:#000000;stroke-width:1.5;" width="540.5" x="208.5" y="1252.6705"/><rect fill="none" height="115.8241" style="stroke:#000000;stroke-width:1.5;" width="697" x="208.5" y="1385.2006"/><rect fill="#F0FFF0" height="467.9842" style="stroke:#000000;stroke-width:1.5;" width="796" x="198.5" y="1522.0246"/><rect fill="none" height="183.9421" style="stroke:#000000;stroke-width:1.5;" width="354.5" x="630" y="1548.7306"/><rect fill="none" height="51.412" style="stroke:#000000;stroke-width:1.5;" width="334.5" x="640" y="1575.4367"/><rect fill="none" height="69.118" style="stroke:#000000;stroke-width:1.5;" width="540.5" x="208.5" y="1746.6728"/><rect fill="#FFE4E1" height="167.218" style="stroke:none;stroke-width:1.0;" width="796" x="198.5" y="1822.7908"/><rect fill="none" height="136.2361" style="stroke:#000000;stroke-width:1.5;" width="540.5" x="208.5" y="1846.7727"/><line style="stroke:#181818;stroke-width:0.5;stroke-dasharray:5.0,5.0;" x1="27" x2="27" y1="84.0679" y2="2007.0088"/><line style="stroke:#181818;stroke-width:0.5;stroke-dasharray:5.0,5.0;" x1="252.5" x2="252.5" y1="84.0679" y2="2007.0088"/><line style="stroke:#181818;stroke-width:0.5;stroke-dasharray:5.0,5.0;" x1="508" x2="508" y1="1070.4004" y2="2007.0088"/><line style="stroke:#181818;stroke-width:0.5;stroke-dasharray:5.0,5.0;" x1="597" x2="597" y1="84.0679" y2="2007.0088"/><line style="stroke:#181818;stroke-width:0.5;stroke-dasharray:5.0,5.0;" x1="694" x2="694" y1="84.0679" y2="2007.0088"/><line style="stroke:#181818;stroke-width:0.5;stroke-dasharray:5.0,5.0;" x1="923.5" x2="923.5" y1="84.0679" y2="2007.0088"/><text fill="#000000" font-family="sans-serif" font-size="14" lengthAdjust="spacing" textLength="38" x="5" y="79.9659">LE-DE</text><ellipse cx="27" cy="13.5" fill="#E2E2F0" rx="8" ry="8" style="stroke:#181818;stroke-width:0.5;"/><path d="M27,21.5 L27,48.5 M14,29.5 L40,29.5 M27,48.5 L14,63.5 M27,48.5 L40,63.5 " fill="none" style="stroke:#181818;stroke-width:0.5;"/><text fill="#000000" font-family="sans-serif" font-size="14" lengthAdjust="spacing" textLength="38" x="5" y="2020.9747">LE-DE</text><ellipse cx="27" cy="2033.5767" fill="#E2E2F0" rx="8" ry="8" style="stroke:#181818;stroke-width:0.5;"/><path d="M27,2041.5767 L27,2068.5767 M14,2049.5767 L40,2049.5767 M27,2068.5767 L14,2083.5767 M27,2068.5767 L40,2083.5767 " fill="none" style="stroke:#181818;stroke-width:0.5;"/><rect fill="#E2E2F0" height="33.0679" rx="2.5" ry="2.5" style="stroke:#181818;stroke-width:0.5;" width="69" x="218.5" y="50"/><text fill="#000000" font-family="sans-serif" font-size="14" lengthAdjust="spacing" textLength="55" x="225.5" y="71.9659">Browser</text><rect fill="#E2E2F0" height="33.0679" rx="2.5" ry="2.5" style="stroke:#181818;stroke-width:0.5;" width="69" x="218.5" y="2006.0088"/><text fill="#000000" font-family="sans-serif" font-size="14" lengthAdjust="spacing" textLength="55" x="225.5" y="2027.9747">Browser</text><rect fill="#E2E2F0" height="33.0679" rx="2.5" ry="2.5" style="stroke:#181818;stroke-width:0.5;" width="71" x="473" y="2006.0088"/><text fill="#000000" font-family="sans-serif" font-size="14" lengthAdjust="spacing" textLength="57" x="480" y="2027.9747">WebApp</text><rect fill="#E2E2F0" height="33.0679" rx="2.5" ry="2.5" style="stroke:#181818;stroke-width:0.5;" width="86" x="554" y="50"/><text fill="#000000" font-family="sans-serif" font-size="14" lengthAdjust="spacing" textLength="72" x="561" y="71.9659">Webserver</text><rect fill="#E2E2F0" height="33.0679" rx="2.5" ry="2.5" style="stroke:#181818;stroke-width:0.5;" width="86" x="554" y="2006.0088"/><text fill="#000000" font-family="sans-serif" font-size="14" lengthAdjust="spacing" textLength="72" x="561" y="2027.9747">Webserver</text><rect fill="#E2E2F0" height="33.0679" rx="2.5" ry="2.5" style="stroke:#181818;stroke-width:0.5;" width="89" x="650" y="50"/><text fill="#000000" font-family="sans-serif" font-size="14" lengthAdjust="spacing" textLength="75" x="657" y="71.9659">HTTP-Proxy</text><rect fill="#E2E2F0" height="33.0679" rx="2.5" ry="2.5" style="stroke:#181818;stroke-width:0.5;" width="89" x="650" y="2006.0088"/><text fill="#000000" font-family="sans-serif" font-size="14" lengthAdjust="spacing" textLength="75" x="657" y="2027.9747">HTTP-Proxy</text><rect fill="#E2E2F0" height="33.0679" rx="2.5" ry="2.5" style="stroke:#181818;stroke-width:0.5;" width="82" x="882.5" y="50"/><text fill="#000000" font-family="sans-serif" font-size="14" lengthAdjust="spacing" textLength="68" x="889.5" y="71.9659">NCPeH-FD</text><rect fill="#E2E2F0" height="33.0679" rx="2.5" ry="2.5" style="stroke:#181818;stroke-width:0.5;" width="82" x="882.5" y="2006.0088"/><text fill="#000000" font-family="sans-serif" font-size="14" lengthAdjust="spacing" textLength="68" x="889.5" y="2027.9747">NCPeH-FD</text><rect fill="#EEEEEE" height="3" style="stroke:#EEEEEE;stroke-width:1.0;" width="1016" x="0" y="115.9209"/><line style="stroke:#000000;stroke-width:1.0;" x1="0" x2="1016" y1="115.9209" y2="115.9209"/><line style="stroke:#000000;stroke-width:1.0;" x1="0" x2="1016" y1="118.9209" y2="118.9209"/><rect fill="#EEEEEE" height="25.706" style="stroke:#000000;stroke-width:2.0;" width="204" x="406" y="104.0679"/><text fill="#000000" font-family="sans-serif" font-size="13" font-weight="bold" lengthAdjust="spacing" textLength="187" x="412" y="121.9649">allgemeine Vorbedingungen</text><path d="M214,144.7739 L214,189.7739 L962,189.7739 L962,154.7739 L952,144.7739 L214,144.7739 " fill="#FEFFDD" style="stroke:#181818;stroke-width:0.5;"/><path d="M952,144.7739 L952,154.7739 L962,154.7739 L952,144.7739 " fill="#FEFFDD" style="stroke:#181818;stroke-width:0.5;"/><text fill="#000000" font-family="sans-serif" font-size="13" font-weight="bold" lengthAdjust="spacing" textLength="579" x="220" y="163.6709">Keine Content-Auswertung der verschl&#252;sselten Nutzdaten durch den Proxy vorgesehen.</text><text fill="#000000" font-family="sans-serif" font-size="13" lengthAdjust="spacing" textLength="727" x="220" y="181.377">D.h., Auswertung des &#228;u&#223;eren Message Header und URL-Pfadinformationen reicht f&#252;r Routing/Token-Validierung etc. aus.</text><path d="M557,200.186 L557,227.186 L962,227.186 L962,210.186 L952,200.186 L557,200.186 " fill="#FEFFDD" style="stroke:#181818;stroke-width:0.5;"/><path d="M952,200.186 L952,210.186 L962,210.186 L952,200.186 " fill="#FEFFDD" style="stroke:#181818;stroke-width:0.5;"/><text fill="#000000" font-family="sans-serif" font-size="13" lengthAdjust="spacing" textLength="247" x="631.75" y="219.083">TLS-Zertifikate sind vorhanden und g&#252;ltig</text><path d="M528,237.892 L528,282.892 L666,282.892 L666,247.892 L656,237.892 L528,237.892 " fill="#FEFFDD" style="stroke:#181818;stroke-width:0.5;"/><path d="M656,237.892 L656,247.892 L666,247.892 L656,237.892 " fill="#FEFFDD" style="stroke:#181818;stroke-width:0.5;"/><text fill="#000000" font-family="sans-serif" font-size="13" lengthAdjust="spacing" textLength="117" x="534" y="256.789">WebApp ist deployt</text><text fill="#000000" font-family="sans-serif" font-size="13" lengthAdjust="spacing" textLength="91" x="534" y="274.495">und erreichbar.</text><polygon fill="#FEFFDD" points="620,293.304,768,293.304,778,332.304,768,371.304,620,371.304,610,332.304,620,293.304" style="stroke:#181818;stroke-width:0.5;"/><text fill="#000000" font-family="sans-serif" font-size="13" lengthAdjust="spacing" textLength="127" x="622" y="311.201">CORS-Policy aktiviert,</text><text fill="#000000" font-family="sans-serif" font-size="13" lengthAdjust="spacing" textLength="138" x="622" y="328.907">damit von der WebApp</text><text fill="#000000" font-family="sans-serif" font-size="13" lengthAdjust="spacing" textLength="132" x="622" y="346.6131">Cross-Origin Requests</text><text fill="#000000" font-family="sans-serif" font-size="13" lengthAdjust="spacing" textLength="144" x="622" y="364.3191">gestellt werden k&#246;nnen.</text><polygon fill="#FEFFDD" points="535,382.1281,658,382.1281,668,394.1281,658,407.1281,535,407.1281,525,394.1281,535,382.1281" style="stroke:#181818;stroke-width:0.5;"/><text fill="#000000" font-family="sans-serif" font-size="13" lengthAdjust="spacing" textLength="119" x="537" y="400.0251">kein CORS-Proxying</text><path d="M610,417.8341 L610,480.8341 L778,480.8341 L778,427.8341 L768,417.8341 L610,417.8341 " fill="#FEFFDD" style="stroke:#181818;stroke-width:0.5;"/><path d="M768,417.8341 L768,427.8341 L778,427.8341 L768,417.8341 " fill="#FEFFDD" style="stroke:#181818;stroke-width:0.5;"/><text fill="#000000" font-family="sans-serif" font-size="13" lengthAdjust="spacing" textLength="147" x="616" y="436.7311">IP-Route zum NCPeH-FD</text><text fill="#000000" font-family="sans-serif" font-size="13" lengthAdjust="spacing" textLength="88" x="616" y="454.4371">ist konfiguriert</text><text fill="#000000" font-family="sans-serif" font-size="13" lengthAdjust="spacing" textLength="111" x="616" y="472.1431">und freigeschaltet.</text><path d="M620,490.9521 L620,517.9521 L768,517.9521 L768,500.9521 L758,490.9521 L620,490.9521 " fill="#FEFFDD" style="stroke:#181818;stroke-width:0.5;"/><path d="M758,490.9521 L758,500.9521 L768,500.9521 L758,490.9521 " fill="#FEFFDD" style="stroke:#181818;stroke-width:0.5;"/><text fill="#000000" font-family="sans-serif" font-size="13" lengthAdjust="spacing" textLength="127" x="626" y="509.8492">mTLS ist konfiguriert.</text><path d="M835,528.6582 L835,591.6582 L1011,591.6582 L1011,538.6582 L1001,528.6582 L835,528.6582 " fill="#FEFFDD" style="stroke:#181818;stroke-width:0.5;"/><path d="M1001,528.6582 L1001,538.6582 L1011,538.6582 L1001,528.6582 " fill="#FEFFDD" style="stroke:#181818;stroke-width:0.5;"/><text fill="#000000" font-family="sans-serif" font-size="13" lengthAdjust="spacing" textLength="155" x="841" y="547.5552">IP-Route zum HTTP-Proxy</text><text fill="#000000" font-family="sans-serif" font-size="13" lengthAdjust="spacing" textLength="88" x="841" y="565.2612">ist konfiguriert</text><text fill="#000000" font-family="sans-serif" font-size="13" lengthAdjust="spacing" textLength="111" x="841" y="582.9672">und freigeschaltet.</text><path d="M849,601.7762 L849,628.7762 L997,628.7762 L997,611.7762 L987,601.7762 L849,601.7762 " fill="#FEFFDD" style="stroke:#181818;stroke-width:0.5;"/><path d="M987,601.7762 L987,611.7762 L997,611.7762 L987,601.7762 " fill="#FEFFDD" style="stroke:#181818;stroke-width:0.5;"/><text fill="#000000" font-family="sans-serif" font-size="13" lengthAdjust="spacing" textLength="127" x="855" y="620.6732">mTLS ist konfiguriert.</text><rect fill="#EEEEEE" height="3" style="stroke:#EEEEEE;stroke-width:1.0;" width="1016" x="0" y="656.3352"/><line style="stroke:#000000;stroke-width:1.0;" x1="0" x2="1016" y1="656.3352" y2="656.3352"/><line style="stroke:#000000;stroke-width:1.0;" x1="0" x2="1016" y1="659.3352" y2="659.3352"/><rect fill="#EEEEEE" height="25.706" style="stroke:#000000;stroke-width:2.0;" width="662" x="177" y="644.4822"/><text fill="#000000" font-family="sans-serif" font-size="13" font-weight="bold" lengthAdjust="spacing" textLength="645" x="183" y="662.3792">Aufbau von Basis-Verbindungen, Client Bereitstellung f&#252;r LE-DE und Basis-Kommunikationsmuster</text><polygon fill="#181818" points="241,717.6003,251,721.6003,241,725.6003,245,721.6003" style="stroke:#181818;stroke-width:1.0;"/><line style="stroke:#181818;stroke-width:1.0;" x1="27" x2="247" y1="721.6003" y2="721.6003"/><text fill="#000000" font-family="sans-serif" font-size="13" font-weight="bold" lengthAdjust="spacing" textLength="7" x="34" y="706.9383">1</text><text fill="#000000" font-family="sans-serif" font-size="13" lengthAdjust="spacing" textLength="49" x="45" y="698.0853">Browser</text><text fill="#000000" font-family="sans-serif" font-size="13" lengthAdjust="spacing" textLength="3" x="94" y="698.0853">&#160;</text><text fill="#000000" font-family="sans-serif" font-size="13" lengthAdjust="spacing" textLength="42" x="97" y="698.0853">&#246;ffnen,</text><text fill="#000000" font-family="sans-serif" font-size="13" lengthAdjust="spacing" textLength="3" x="139" y="698.0853">&#160;</text><text fill="#000000" font-family="sans-serif" font-size="13" lengthAdjust="spacing" textLength="25" x="142" y="698.0853">URL</text><text fill="#000000" font-family="sans-serif" font-size="13" lengthAdjust="spacing" textLength="3" x="167" y="698.0853">&#160;</text><text fill="#000000" font-family="sans-serif" font-size="13" lengthAdjust="spacing" textLength="56" x="170" y="698.0853">eingeben</text><text fill="#000000" font-family="sans-serif" font-size="13" lengthAdjust="spacing" textLength="28" x="45" y="715.7913">oder</text><text fill="#000000" font-family="sans-serif" font-size="13" lengthAdjust="spacing" textLength="3" x="73" y="715.7913">&#160;</text><text fill="#000000" font-family="sans-serif" font-size="13" lengthAdjust="spacing" textLength="25" x="76" y="715.7913">Link</text><text fill="#000000" font-family="sans-serif" font-size="13" lengthAdjust="spacing" textLength="3" x="101" y="715.7913">&#160;</text><text fill="#000000" font-family="sans-serif" font-size="13" lengthAdjust="spacing" textLength="19" x="104" y="715.7913">zur</text><text fill="#000000" font-family="sans-serif" font-size="13" lengthAdjust="spacing" textLength="3" x="123" y="715.7913">&#160;</text><text fill="#000000" font-family="sans-serif" font-size="13" lengthAdjust="spacing" textLength="51" x="126" y="715.7913">WebApp</text><text fill="#000000" font-family="sans-serif" font-size="13" lengthAdjust="spacing" textLength="3" x="177" y="715.7913">&#160;</text><text fill="#000000" font-family="sans-serif" font-size="13" lengthAdjust="spacing" textLength="56" x="180" y="715.7913">anklicken</text><path d="M208.5,736.6003 L356.5,736.6003 L356.5,746.3063 L346.5,756.3063 L208.5,756.3063 L208.5,736.6003 " fill="#FF8C00" style="stroke:#000000;stroke-width:1.5;"/><rect fill="none" height="118.5301" style="stroke:#000000;stroke-width:1.5;" width="441.5" x="208.5" y="736.6003"/><text fill="#000000" font-family="sans-serif" font-size="13" font-weight="bold" lengthAdjust="spacing" textLength="103" x="223.5" y="751.4973">TLS-Verbindung</text><polygon fill="#181818" points="585,793.7183,595,797.7183,585,801.7183,589,797.7183" style="stroke:#181818;stroke-width:1.0;"/><line style="stroke:#181818;stroke-width:1.0;" x1="253" x2="591" y1="797.7183" y2="797.7183"/><text fill="#000000" font-family="sans-serif" font-size="13" font-weight="bold" lengthAdjust="spacing" textLength="7" x="260" y="783.0563">2</text><text fill="#000000" font-family="sans-serif" font-size="13" lengthAdjust="spacing" textLength="71" x="271" y="774.2033">Verbindung</text><text fill="#000000" font-family="sans-serif" font-size="13" lengthAdjust="spacing" textLength="3" x="342" y="774.2033">&#160;</text><text fill="#000000" font-family="sans-serif" font-size="13" lengthAdjust="spacing" textLength="57" x="345" y="774.2033">aufbauen</text><text fill="#000000" font-family="sans-serif" font-size="13" lengthAdjust="spacing" textLength="3" x="402" y="774.2033">&#160;</text><text fill="#000000" font-family="sans-serif" font-size="13" lengthAdjust="spacing" textLength="24" x="405" y="774.2033">und</text><text fill="#000000" font-family="sans-serif" font-size="13" lengthAdjust="spacing" textLength="51" x="271" y="791.9093">WebApp</text><text fill="#000000" font-family="sans-serif" font-size="13" lengthAdjust="spacing" textLength="3" x="322" y="791.9093">&#160;</text><text fill="#000000" font-family="sans-serif" font-size="13" lengthAdjust="spacing" textLength="60" x="325" y="791.9093">anfordern</text><polygon fill="#181818" points="264,843.1304,254,847.1304,264,851.1304,260,847.1304" style="stroke:#181818;stroke-width:1.0;"/><line style="stroke:#181818;stroke-width:1.0;stroke-dasharray:2.0,2.0;" x1="258" x2="596" y1="847.1304" y2="847.1304"/><text fill="#000000" font-family="sans-serif" font-size="13" font-weight="bold" lengthAdjust="spacing" textLength="7" x="270" y="832.4684">3</text><text fill="#000000" font-family="sans-serif" font-size="13" lengthAdjust="spacing" textLength="51" x="281" y="823.6153">WebApp</text><text fill="#000000" font-family="sans-serif" font-size="13" lengthAdjust="spacing" textLength="3" x="332" y="823.6153">&#160;</text><text fill="#000000" font-family="sans-serif" font-size="13" lengthAdjust="spacing" textLength="24" x="335" y="823.6153">inkl.</text><text fill="#000000" font-family="sans-serif" font-size="13" lengthAdjust="spacing" textLength="3" x="359" y="823.6153">&#160;</text><text fill="#000000" font-family="sans-serif" font-size="13" lengthAdjust="spacing" textLength="25" x="362" y="823.6153">aller</text><text fill="#000000" font-family="sans-serif" font-size="13" lengthAdjust="spacing" textLength="3" x="387" y="823.6153">&#160;</text><text fill="#000000" font-family="sans-serif" font-size="13" lengthAdjust="spacing" textLength="48" x="390" y="823.6153">Bundles</text><text fill="#000000" font-family="sans-serif" font-size="13" lengthAdjust="spacing" textLength="66" x="281" y="841.3214">vollst&#228;ndig</text><text fill="#000000" font-family="sans-serif" font-size="13" lengthAdjust="spacing" textLength="3" x="347" y="841.3214">&#160;</text><text fill="#000000" font-family="sans-serif" font-size="13" lengthAdjust="spacing" textLength="77" x="350" y="841.3214">zur&#252;ckliefern</text><line style="stroke:#181818;stroke-width:1.0;" x1="253" x2="295" y1="921.2484" y2="921.2484"/><line style="stroke:#181818;stroke-width:1.0;" x1="295" x2="295" y1="921.2484" y2="934.2484"/><line style="stroke:#181818;stroke-width:1.0;" x1="254" x2="295" y1="934.2484" y2="934.2484"/><polygon fill="#181818" points="264,930.2484,254,934.2484,264,938.2484,260,934.2484" style="stroke:#181818;stroke-width:1.0;"/><text fill="#000000" font-family="sans-serif" font-size="13" font-weight="bold" lengthAdjust="spacing" textLength="7" x="260" y="897.7334">4</text><text fill="#000000" font-family="sans-serif" font-size="13" lengthAdjust="spacing" textLength="20" x="271" y="880.0274">per</text><text fill="#000000" font-family="sans-serif" font-size="13" lengthAdjust="spacing" textLength="3" x="291" y="880.0274">&#160;</text><text fill="#000000" font-family="sans-serif" font-size="13" lengthAdjust="spacing" textLength="35" x="294" y="880.0274">Policy</text><text fill="#000000" font-family="sans-serif" font-size="13" lengthAdjust="spacing" textLength="3" x="329" y="880.0274">&#160;</text><text fill="#000000" font-family="sans-serif" font-size="13" lengthAdjust="spacing" textLength="82" x="332" y="880.0274">erzwungenen</text><text fill="#000000" font-family="sans-serif" font-size="13" lengthAdjust="spacing" textLength="92" x="271" y="897.7334">Integrity-Check</text><text fill="#000000" font-family="sans-serif" font-size="13" lengthAdjust="spacing" textLength="3" x="363" y="897.7334">&#160;</text><text fill="#000000" font-family="sans-serif" font-size="13" lengthAdjust="spacing" textLength="20" x="366" y="897.7334">der</text><text fill="#000000" font-family="sans-serif" font-size="13" lengthAdjust="spacing" textLength="3" x="386" y="897.7334">&#160;</text><text fill="#000000" font-family="sans-serif" font-size="13" lengthAdjust="spacing" textLength="51" x="389" y="897.7334">WebApp</text><text fill="#000000" font-family="sans-serif" font-size="13" lengthAdjust="spacing" textLength="75" x="271" y="915.4394">durchf&#252;hren</text><path d="M208.5,949.2484 L291.5,949.2484 L291.5,958.9544 L281.5,968.9544 L208.5,968.9544 L208.5,949.2484 " fill="#EEEEEE" style="stroke:#000000;stroke-width:1.5;"/><rect fill="none" height="82.118" style="stroke:#000000;stroke-width:1.5;" width="257" x="208.5" y="949.2484"/><text fill="#000000" font-family="sans-serif" font-size="13" font-weight="bold" lengthAdjust="spacing" textLength="38" x="223.5" y="964.1454">break</text><text fill="#000000" font-family="sans-serif" font-size="11" font-weight="bold" lengthAdjust="spacing" textLength="154" x="306.5" y="963.0073">[Integrity-Check fehlerhaft]</text><line style="stroke:#181818;stroke-width:1.0;" x1="253" x2="295" y1="1010.3665" y2="1010.3665"/><line style="stroke:#181818;stroke-width:1.0;" x1="295" x2="295" y1="1010.3665" y2="1023.3665"/><line style="stroke:#181818;stroke-width:1.0;" x1="254" x2="295" y1="1023.3665" y2="1023.3665"/><polygon fill="#181818" points="264,1019.3665,254,1023.3665,264,1027.3665,260,1023.3665" style="stroke:#181818;stroke-width:1.0;"/><text fill="#000000" font-family="sans-serif" font-size="13" font-weight="bold" lengthAdjust="spacing" textLength="7" x="260" y="995.7045">5</text><text fill="#000000" font-family="sans-serif" font-size="13" lengthAdjust="spacing" textLength="51" x="271" y="986.8514">WebApp</text><text fill="#000000" font-family="sans-serif" font-size="13" lengthAdjust="spacing" textLength="3" x="322" y="986.8514">&#160;</text><text fill="#000000" font-family="sans-serif" font-size="13" lengthAdjust="spacing" textLength="30" x="325" y="986.8514">nicht</text><text fill="#000000" font-family="sans-serif" font-size="13" lengthAdjust="spacing" textLength="3" x="355" y="986.8514">&#160;</text><text fill="#000000" font-family="sans-serif" font-size="13" lengthAdjust="spacing" textLength="64" x="358" y="986.8514">ausf&#252;hren,</text><text fill="#000000" font-family="sans-serif" font-size="13" lengthAdjust="spacing" textLength="91" x="271" y="1004.5575">Fehlermeldung</text><text fill="#000000" font-family="sans-serif" font-size="13" lengthAdjust="spacing" textLength="3" x="362" y="1004.5575">&#160;</text><text fill="#000000" font-family="sans-serif" font-size="13" lengthAdjust="spacing" textLength="54" x="365" y="1004.5575">anzeigen</text><polygon fill="#181818" points="461,1058.0725,471,1062.0725,461,1066.0725,465,1062.0725" style="stroke:#181818;stroke-width:1.0;"/><line style="stroke:#181818;stroke-width:1.0;" x1="253" x2="467" y1="1062.0725" y2="1062.0725"/><text fill="#000000" font-family="sans-serif" font-size="13" font-weight="bold" lengthAdjust="spacing" textLength="7" x="260" y="1056.2635">6</text><text fill="#000000" font-family="sans-serif" font-size="13" lengthAdjust="spacing" textLength="50" x="271" y="1056.2635">Webapp</text><text fill="#000000" font-family="sans-serif" font-size="13" lengthAdjust="spacing" textLength="3" x="321" y="1056.2635">&#160;</text><text fill="#000000" font-family="sans-serif" font-size="13" lengthAdjust="spacing" textLength="48" x="324" y="1056.2635">rendern</text><text fill="#000000" font-family="sans-serif" font-size="13" lengthAdjust="spacing" textLength="3" x="372" y="1056.2635">&#160;</text><text fill="#000000" font-family="sans-serif" font-size="13" lengthAdjust="spacing" textLength="24" x="375" y="1056.2635">und</text><text fill="#000000" font-family="sans-serif" font-size="13" lengthAdjust="spacing" textLength="3" x="399" y="1056.2635">&#160;</text><text fill="#000000" font-family="sans-serif" font-size="13" lengthAdjust="spacing" textLength="54" x="402" y="1056.2635">anzeigen</text><rect fill="#E2E2F0" height="33.0679" rx="2.5" ry="2.5" style="stroke:#181818;stroke-width:0.5;" width="71" x="473" y="1038.3665"/><text fill="#000000" font-family="sans-serif" font-size="14" lengthAdjust="spacing" textLength="57" x="480" y="1060.3324">WebApp</text><path d="M213,1087.4344 L213,1114.4344 L548,1114.4344 L548,1097.4344 L538,1087.4344 L213,1087.4344 " fill="#FEFFDD" style="stroke:#181818;stroke-width:0.5;"/><path d="M538,1087.4344 L538,1097.4344 L548,1097.4344 L538,1087.4344 " fill="#FEFFDD" style="stroke:#181818;stroke-width:0.5;"/><text fill="#000000" font-family="sans-serif" font-size="13" lengthAdjust="spacing" textLength="314" x="219" y="1106.3314">Client-side WebApp wird nun im Browser ausgef&#252;hrt.</text><polygon fill="#181818" points="496.5,1175.2584,506.5,1179.2584,496.5,1183.2584,500.5,1179.2584" style="stroke:#181818;stroke-width:1.0;"/><line style="stroke:#181818;stroke-width:1.0;" x1="27" x2="502.5" y1="1179.2584" y2="1179.2584"/><text fill="#000000" font-family="sans-serif" font-size="13" font-weight="bold" lengthAdjust="spacing" textLength="7" x="34" y="1155.7434">7</text><text fill="#000000" font-family="sans-serif" font-size="13" lengthAdjust="spacing" textLength="20" x="45" y="1138.0374">mit</text><text fill="#000000" font-family="sans-serif" font-size="13" lengthAdjust="spacing" textLength="3" x="65" y="1138.0374">&#160;</text><text fill="#000000" font-family="sans-serif" font-size="13" lengthAdjust="spacing" textLength="51" x="68" y="1138.0374">WebApp</text><text fill="#000000" font-family="sans-serif" font-size="13" lengthAdjust="spacing" textLength="3" x="119" y="1138.0374">&#160;</text><text fill="#000000" font-family="sans-serif" font-size="13" lengthAdjust="spacing" textLength="76" x="122" y="1138.0374">interagieren,</text><text fill="#000000" font-family="sans-serif" font-size="13" lengthAdjust="spacing" textLength="53" x="45" y="1155.7434">wodurch</text><text fill="#000000" font-family="sans-serif" font-size="13" lengthAdjust="spacing" textLength="3" x="98" y="1155.7434">&#160;</text><text fill="#000000" font-family="sans-serif" font-size="13" lengthAdjust="spacing" textLength="18" x="101" y="1155.7434">ein</text><text fill="#000000" font-family="sans-serif" font-size="13" lengthAdjust="spacing" textLength="3" x="119" y="1155.7434">&#160;</text><text fill="#000000" font-family="sans-serif" font-size="13" lengthAdjust="spacing" textLength="73" x="122" y="1155.7434">API-Request</text><text fill="#000000" font-family="sans-serif" font-size="13" lengthAdjust="spacing" textLength="58" x="45" y="1173.4494">ausgel&#246;st</text><text fill="#000000" font-family="sans-serif" font-size="13" lengthAdjust="spacing" textLength="3" x="103" y="1173.4494">&#160;</text><text fill="#000000" font-family="sans-serif" font-size="13" lengthAdjust="spacing" textLength="26" x="106" y="1173.4494">wird</text><polygon fill="#181818" points="264,1206.9645,254,1210.9645,264,1214.9645,260,1210.9645" style="stroke:#181818;stroke-width:1.0;"/><line style="stroke:#181818;stroke-width:1.0;" x1="258" x2="507.5" y1="1210.9645" y2="1210.9645"/><text fill="#000000" font-family="sans-serif" font-size="13" font-weight="bold" lengthAdjust="spacing" textLength="7" x="270" y="1205.1555">8</text><text fill="#000000" font-family="sans-serif" font-size="13" lengthAdjust="spacing" textLength="73" x="281" y="1205.1555">API-Request</text><path d="M198.5,1225.9645 L346.5,1225.9645 L346.5,1235.6705 L336.5,1245.6705 L198.5,1245.6705 L198.5,1225.9645 " fill="#FF8C00" style="stroke:#000000;stroke-width:1.5;"/><rect fill="none" height="282.0602" style="stroke:#000000;stroke-width:1.5;" width="717" x="198.5" y="1225.9645"/><text fill="#000000" font-family="sans-serif" font-size="13" font-weight="bold" lengthAdjust="spacing" textLength="103" x="213.5" y="1240.8615">TLS-Verbindung</text><path d="M208.5,1252.6705 L275.5,1252.6705 L275.5,1262.3765 L265.5,1272.3765 L208.5,1272.3765 L208.5,1252.6705 " fill="#EEEEEE" style="stroke:#000000;stroke-width:1.5;"/><rect fill="none" height="86.8241" style="stroke:#000000;stroke-width:1.5;" width="540.5" x="208.5" y="1252.6705"/><text fill="#000000" font-family="sans-serif" font-size="13" font-weight="bold" lengthAdjust="spacing" textLength="22" x="223.5" y="1267.5675">opt</text><text fill="#000000" font-family="sans-serif" font-size="11" font-weight="bold" lengthAdjust="spacing" textLength="197" x="290.5" y="1266.4294">[keine bestehende TLS-Verbindung]</text><polygon fill="#181818" points="682.5,1327.4945,692.5,1331.4945,682.5,1335.4945,686.5,1331.4945" style="stroke:#181818;stroke-width:1.0;"/><line style="stroke:#181818;stroke-width:1.0;" x1="253" x2="688.5" y1="1331.4945" y2="1331.4945"/><text fill="#000000" font-family="sans-serif" font-size="13" font-weight="bold" lengthAdjust="spacing" textLength="7" x="260" y="1307.9795">9</text><text fill="#000000" font-family="sans-serif" font-size="13" lengthAdjust="spacing" textLength="96" x="271" y="1290.2735">TLS-Verbindung</text><text fill="#000000" font-family="sans-serif" font-size="13" lengthAdjust="spacing" textLength="3" x="367" y="1290.2735">&#160;</text><text fill="#000000" font-family="sans-serif" font-size="13" lengthAdjust="spacing" textLength="11" x="370" y="1290.2735">in</text><text fill="#000000" font-family="sans-serif" font-size="13" lengthAdjust="spacing" textLength="3" x="381" y="1290.2735">&#160;</text><text fill="#000000" font-family="sans-serif" font-size="13" lengthAdjust="spacing" textLength="20" x="384" y="1290.2735">der</text><text fill="#000000" font-family="sans-serif" font-size="13" lengthAdjust="spacing" textLength="76" x="271" y="1307.9795">zugeh&#246;rigen</text><text fill="#000000" font-family="sans-serif" font-size="13" lengthAdjust="spacing" textLength="3" x="347" y="1307.9795">&#160;</text><text fill="#000000" font-family="sans-serif" font-size="13" lengthAdjust="spacing" textLength="106" x="350" y="1307.9795">Browser-Sandbox</text><text fill="#000000" font-family="sans-serif" font-size="13" lengthAdjust="spacing" textLength="57" x="271" y="1325.6855">aufbauen</text><polygon fill="#181818" points="682.5,1366.2006,692.5,1370.2006,682.5,1374.2006,686.5,1370.2006" style="stroke:#181818;stroke-width:1.0;"/><line style="stroke:#181818;stroke-width:1.0;" x1="253" x2="688.5" y1="1370.2006" y2="1370.2006"/><text fill="#000000" font-family="sans-serif" font-size="13" font-weight="bold" lengthAdjust="spacing" textLength="14" x="260" y="1364.3916">10</text><text fill="#000000" font-family="sans-serif" font-size="13" lengthAdjust="spacing" textLength="37" x="278" y="1364.3916">SBOM</text><text fill="#000000" font-family="sans-serif" font-size="13" lengthAdjust="spacing" textLength="3" x="315" y="1364.3916">&#160;</text><text fill="#000000" font-family="sans-serif" font-size="13" lengthAdjust="spacing" textLength="20" x="318" y="1364.3916">der</text><text fill="#000000" font-family="sans-serif" font-size="13" lengthAdjust="spacing" textLength="3" x="338" y="1364.3916">&#160;</text><text fill="#000000" font-family="sans-serif" font-size="13" lengthAdjust="spacing" textLength="51" x="341" y="1364.3916">WebApp</text><text fill="#000000" font-family="sans-serif" font-size="13" lengthAdjust="spacing" textLength="3" x="392" y="1364.3916">&#160;</text><text fill="#000000" font-family="sans-serif" font-size="13" lengthAdjust="spacing" textLength="71" x="395" y="1364.3916">&#252;bermitteln</text><path d="M208.5,1385.2006 L275.5,1385.2006 L275.5,1394.9066 L265.5,1404.9066 L208.5,1404.9066 L208.5,1385.2006 " fill="#EEEEEE" style="stroke:#000000;stroke-width:1.5;"/><rect fill="none" height="115.8241" style="stroke:#000000;stroke-width:1.5;" width="697" x="208.5" y="1385.2006"/><text fill="#000000" font-family="sans-serif" font-size="13" font-weight="bold" lengthAdjust="spacing" textLength="22" x="223.5" y="1400.0976">par</text><line style="stroke:#181818;stroke-width:1.0;" x1="694.5" x2="736.5" y1="1446.3186" y2="1446.3186"/><line style="stroke:#181818;stroke-width:1.0;" x1="736.5" x2="736.5" y1="1446.3186" y2="1459.3186"/><line style="stroke:#181818;stroke-width:1.0;" x1="695.5" x2="736.5" y1="1459.3186" y2="1459.3186"/><polygon fill="#181818" points="705.5,1455.3186,695.5,1459.3186,705.5,1463.3186,701.5,1459.3186" style="stroke:#181818;stroke-width:1.0;"/><text fill="#000000" font-family="sans-serif" font-size="13" font-weight="bold" lengthAdjust="spacing" textLength="14" x="701.5" y="1431.6566">11</text><text fill="#000000" font-family="sans-serif" font-size="13" lengthAdjust="spacing" textLength="37" x="719.5" y="1422.8036">SBOM</text><text fill="#000000" font-family="sans-serif" font-size="13" lengthAdjust="spacing" textLength="3" x="756.5" y="1422.8036">&#160;</text><text fill="#000000" font-family="sans-serif" font-size="13" lengthAdjust="spacing" textLength="46" x="759.5" y="1422.8036">anhand</text><text fill="#000000" font-family="sans-serif" font-size="13" lengthAdjust="spacing" textLength="3" x="805.5" y="1422.8036">&#160;</text><text fill="#000000" font-family="sans-serif" font-size="13" lengthAdjust="spacing" textLength="45" x="808.5" y="1422.8036">eigener</text><text fill="#000000" font-family="sans-serif" font-size="13" lengthAdjust="spacing" textLength="3" x="853.5" y="1422.8036">&#160;</text><text fill="#000000" font-family="sans-serif" font-size="13" lengthAdjust="spacing" textLength="37" x="856.5" y="1422.8036">SBOM</text><text fill="#000000" font-family="sans-serif" font-size="13" lengthAdjust="spacing" textLength="58" x="719.5" y="1440.5096">validieren</text><line style="stroke:#000000;stroke-width:1.0;stroke-dasharray:2.0,2.0;" x1="208.5" x2="905.5" y1="1468.3186" y2="1468.3186"/><polygon fill="#181818" points="682.5,1489.0246,692.5,1493.0246,682.5,1497.0246,686.5,1493.0246" style="stroke:#181818;stroke-width:1.0;"/><line style="stroke:#181818;stroke-width:1.0;" x1="253" x2="688.5" y1="1493.0246" y2="1493.0246"/><text fill="#000000" font-family="sans-serif" font-size="13" font-weight="bold" lengthAdjust="spacing" textLength="14" x="260" y="1487.2156">12</text><text fill="#000000" font-family="sans-serif" font-size="13" lengthAdjust="spacing" textLength="73" x="278" y="1487.2156">API-Request</text><text fill="#000000" font-family="sans-serif" font-size="13" lengthAdjust="spacing" textLength="3" x="351" y="1487.2156">&#160;</text><text fill="#000000" font-family="sans-serif" font-size="13" lengthAdjust="spacing" textLength="44" x="354" y="1487.2156">senden</text><path d="M198.5,1522.0246 L261.5,1522.0246 L261.5,1531.7306 L251.5,1541.7306 L198.5,1541.7306 L198.5,1522.0246 " fill="#EEEEEE" style="stroke:#000000;stroke-width:1.5;"/><rect fill="none" height="467.9842" style="stroke:#000000;stroke-width:1.5;" width="796" x="198.5" y="1522.0246"/><text fill="#000000" font-family="sans-serif" font-size="13" font-weight="bold" lengthAdjust="spacing" textLength="18" x="213.5" y="1536.9216">alt</text><text fill="#000000" font-family="sans-serif" font-size="11" font-weight="bold" lengthAdjust="spacing" textLength="135" x="276.5" y="1535.7835">[Validierung erfolgreich]</text><path d="M630,1548.7306 L791,1548.7306 L791,1558.4367 L781,1568.4367 L630,1568.4367 L630,1548.7306 " fill="#FF8C00" style="stroke:#000000;stroke-width:1.5;"/><rect fill="none" height="183.9421" style="stroke:#000000;stroke-width:1.5;" width="354.5" x="630" y="1548.7306"/><text fill="#000000" font-family="sans-serif" font-size="13" font-weight="bold" lengthAdjust="spacing" textLength="116" x="645" y="1563.6277">mTLS-Verbindung</text><path d="M640,1575.4367 L707,1575.4367 L707,1585.1427 L697,1595.1427 L640,1595.1427 L640,1575.4367 " fill="#EEEEEE" style="stroke:#000000;stroke-width:1.5;"/><rect fill="none" height="51.412" style="stroke:#000000;stroke-width:1.5;" width="334.5" x="640" y="1575.4367"/><text fill="#000000" font-family="sans-serif" font-size="13" font-weight="bold" lengthAdjust="spacing" textLength="22" x="655" y="1590.3337">opt</text><text fill="#000000" font-family="sans-serif" font-size="11" font-weight="bold" lengthAdjust="spacing" textLength="208" x="722" y="1589.1956">[keine bestehende mTLS-Verbindung]</text><polygon fill="#181818" points="705.5,1614.8487,695.5,1618.8487,705.5,1622.8487,701.5,1618.8487" style="stroke:#181818;stroke-width:1.0;"/><polygon fill="#181818" points="911.5,1614.8487,921.5,1618.8487,911.5,1622.8487,915.5,1618.8487" style="stroke:#181818;stroke-width:1.0;"/><line style="stroke:#181818;stroke-width:1.0;" x1="699.5" x2="917.5" y1="1618.8487" y2="1618.8487"/><text fill="#000000" font-family="sans-serif" font-size="13" font-weight="bold" lengthAdjust="spacing" textLength="14" x="711.5" y="1613.0397">13</text><text fill="#000000" font-family="sans-serif" font-size="13" lengthAdjust="spacing" textLength="71" x="729.5" y="1613.0397">Verbindung</text><text fill="#000000" font-family="sans-serif" font-size="13" lengthAdjust="spacing" textLength="3" x="800.5" y="1613.0397">&#160;</text><text fill="#000000" font-family="sans-serif" font-size="13" lengthAdjust="spacing" textLength="57" x="803.5" y="1613.0397">aufbauen</text><polygon fill="#181818" points="911.5,1671.2607,921.5,1675.2607,911.5,1679.2607,915.5,1675.2607" style="stroke:#181818;stroke-width:1.0;"/><line style="stroke:#181818;stroke-width:1.0;" x1="694.5" x2="917.5" y1="1675.2607" y2="1675.2607"/><text fill="#000000" font-family="sans-serif" font-size="13" font-weight="bold" lengthAdjust="spacing" textLength="14" x="701.5" y="1660.5987">14</text><text fill="#000000" font-family="sans-serif" font-size="13" lengthAdjust="spacing" textLength="73" x="719.5" y="1651.7457">API-Request</text><text fill="#000000" font-family="sans-serif" font-size="13" lengthAdjust="spacing" textLength="3" x="792.5" y="1651.7457">&#160;</text><text fill="#000000" font-family="sans-serif" font-size="13" lengthAdjust="spacing" textLength="69" x="795.5" y="1651.7457">verarbeiten</text><text fill="#000000" font-family="sans-serif" font-size="13" lengthAdjust="spacing" textLength="3" x="864.5" y="1651.7457">&#160;</text><text fill="#000000" font-family="sans-serif" font-size="13" lengthAdjust="spacing" textLength="24" x="867.5" y="1651.7457">und</text><text fill="#000000" font-family="sans-serif" font-size="13" lengthAdjust="spacing" textLength="28" x="719.5" y="1669.4517">&#252;ber</text><text fill="#000000" font-family="sans-serif" font-size="13" lengthAdjust="spacing" textLength="3" x="747.5" y="1669.4517">&#160;</text><text fill="#000000" font-family="sans-serif" font-size="13" lengthAdjust="spacing" textLength="71" x="750.5" y="1669.4517">Verbindung</text><text fill="#000000" font-family="sans-serif" font-size="13" lengthAdjust="spacing" textLength="3" x="821.5" y="1669.4517">&#160;</text><text fill="#000000" font-family="sans-serif" font-size="13" lengthAdjust="spacing" textLength="70" x="824.5" y="1669.4517">weiterleiten</text><polygon fill="#181818" points="705.5,1720.6728,695.5,1724.6728,705.5,1728.6728,701.5,1724.6728" style="stroke:#181818;stroke-width:1.0;"/><line style="stroke:#181818;stroke-width:1.0;stroke-dasharray:2.0,2.0;" x1="699.5" x2="922.5" y1="1724.6728" y2="1724.6728"/><text fill="#000000" font-family="sans-serif" font-size="13" font-weight="bold" lengthAdjust="spacing" textLength="14" x="711.5" y="1710.0107">15</text><text fill="#000000" font-family="sans-serif" font-size="13" lengthAdjust="spacing" textLength="82" x="729.5" y="1701.1577">API-Response</text><text fill="#000000" font-family="sans-serif" font-size="13" lengthAdjust="spacing" textLength="3" x="811.5" y="1701.1577">&#160;</text><text fill="#000000" font-family="sans-serif" font-size="13" lengthAdjust="spacing" textLength="28" x="814.5" y="1701.1577">&#252;ber</text><text fill="#000000" font-family="sans-serif" font-size="13" lengthAdjust="spacing" textLength="3" x="842.5" y="1701.1577">&#160;</text><text fill="#000000" font-family="sans-serif" font-size="13" lengthAdjust="spacing" textLength="71" x="845.5" y="1701.1577">bestehende</text><text fill="#000000" font-family="sans-serif" font-size="13" lengthAdjust="spacing" textLength="71" x="729.5" y="1718.8638">Verbindung</text><text fill="#000000" font-family="sans-serif" font-size="13" lengthAdjust="spacing" textLength="3" x="800.5" y="1718.8638">&#160;</text><text fill="#000000" font-family="sans-serif" font-size="13" lengthAdjust="spacing" textLength="77" x="803.5" y="1718.8638">zur&#252;ckliefern</text><path d="M208.5,1746.6728 L356.5,1746.6728 L356.5,1756.3788 L346.5,1766.3788 L208.5,1766.3788 L208.5,1746.6728 " fill="#FF8C00" style="stroke:#000000;stroke-width:1.5;"/><rect fill="none" height="69.118" style="stroke:#000000;stroke-width:1.5;" width="540.5" x="208.5" y="1746.6728"/><text fill="#000000" font-family="sans-serif" font-size="13" font-weight="bold" lengthAdjust="spacing" textLength="103" x="223.5" y="1761.5698">TLS-Verbindung</text><polygon fill="#181818" points="264,1803.7908,254,1807.7908,264,1811.7908,260,1807.7908" style="stroke:#181818;stroke-width:1.0;"/><line style="stroke:#181818;stroke-width:1.0;stroke-dasharray:2.0,2.0;" x1="258" x2="693.5" y1="1807.7908" y2="1807.7908"/><text fill="#000000" font-family="sans-serif" font-size="13" font-weight="bold" lengthAdjust="spacing" textLength="14" x="270" y="1793.1288">16</text><text fill="#000000" font-family="sans-serif" font-size="13" lengthAdjust="spacing" textLength="82" x="288" y="1784.2758">API-Response</text><text fill="#000000" font-family="sans-serif" font-size="13" lengthAdjust="spacing" textLength="3" x="370" y="1784.2758">&#160;</text><text fill="#000000" font-family="sans-serif" font-size="13" lengthAdjust="spacing" textLength="28" x="373" y="1784.2758">&#252;ber</text><text fill="#000000" font-family="sans-serif" font-size="13" lengthAdjust="spacing" textLength="3" x="401" y="1784.2758">&#160;</text><text fill="#000000" font-family="sans-serif" font-size="13" lengthAdjust="spacing" textLength="71" x="404" y="1784.2758">bestehende</text><text fill="#000000" font-family="sans-serif" font-size="13" lengthAdjust="spacing" textLength="71" x="288" y="1801.9818">Verbindung</text><text fill="#000000" font-family="sans-serif" font-size="13" lengthAdjust="spacing" textLength="3" x="359" y="1801.9818">&#160;</text><text fill="#000000" font-family="sans-serif" font-size="13" lengthAdjust="spacing" textLength="77" x="362" y="1801.9818">zur&#252;ckliefern</text><line style="stroke:#000000;stroke-width:1.0;stroke-dasharray:2.0,2.0;" x1="198.5" x2="994.5" y1="1823.7908" y2="1823.7908"/><text fill="#000000" font-family="sans-serif" font-size="11" font-weight="bold" lengthAdjust="spacing" textLength="130" x="203.5" y="1835.5497">[Validierung fehlerhaft]</text><path d="M208.5,1846.7727 L356.5,1846.7727 L356.5,1856.4787 L346.5,1866.4787 L208.5,1866.4787 L208.5,1846.7727 " fill="#FF8C00" style="stroke:#000000;stroke-width:1.5;"/><rect fill="none" height="136.2361" style="stroke:#000000;stroke-width:1.5;" width="540.5" x="208.5" y="1846.7727"/><text fill="#000000" font-family="sans-serif" font-size="13" font-weight="bold" lengthAdjust="spacing" textLength="103" x="223.5" y="1861.6697">TLS-Verbindung</text><polygon fill="#181818" points="264,1903.8907,254,1907.8907,264,1911.8907,260,1907.8907" style="stroke:#181818;stroke-width:1.0;"/><line style="stroke:#181818;stroke-width:1.0;stroke-dasharray:2.0,2.0;" x1="258" x2="693.5" y1="1907.8907" y2="1907.8907"/><text fill="#000000" font-family="sans-serif" font-size="13" font-weight="bold" lengthAdjust="spacing" textLength="14" x="270" y="1893.2287">17</text><text fill="#000000" font-family="sans-serif" font-size="13" lengthAdjust="spacing" textLength="91" x="288" y="1884.3757">Fehlermeldung</text><text fill="#000000" font-family="sans-serif" font-size="13" lengthAdjust="spacing" textLength="3" x="379" y="1884.3757">&#160;</text><text fill="#000000" font-family="sans-serif" font-size="13" lengthAdjust="spacing" textLength="28" x="382" y="1884.3757">&#252;ber</text><text fill="#000000" font-family="sans-serif" font-size="13" lengthAdjust="spacing" textLength="3" x="410" y="1884.3757">&#160;</text><text fill="#000000" font-family="sans-serif" font-size="13" lengthAdjust="spacing" textLength="71" x="413" y="1884.3757">bestehende</text><text fill="#000000" font-family="sans-serif" font-size="13" lengthAdjust="spacing" textLength="71" x="288" y="1902.0817">Verbindung</text><text fill="#000000" font-family="sans-serif" font-size="13" lengthAdjust="spacing" textLength="3" x="359" y="1902.0817">&#160;</text><text fill="#000000" font-family="sans-serif" font-size="13" lengthAdjust="spacing" textLength="77" x="362" y="1902.0817">zur&#252;ckliefern</text><polygon fill="#181818" points="264,1971.0088,254,1975.0088,264,1979.0088,260,1975.0088" style="stroke:#181818;stroke-width:1.0;"/><line style="stroke:#181818;stroke-width:1.0;stroke-dasharray:2.0,2.0;" x1="258" x2="693.5" y1="1975.0088" y2="1975.0088"/><text fill="#000000" font-family="sans-serif" font-size="13" font-weight="bold" lengthAdjust="spacing" textLength="14" x="270" y="1951.4938">18</text><text fill="#000000" font-family="sans-serif" font-size="13" lengthAdjust="spacing" textLength="103" x="288" y="1933.7878">TLS.close_notify()</text><text fill="#000000" font-family="sans-serif" font-size="13" lengthAdjust="spacing" textLength="3" x="391" y="1933.7878">&#160;</text><text fill="#000000" font-family="sans-serif" font-size="13" lengthAdjust="spacing" textLength="54" x="394" y="1933.7878">aufrufen,</text><text fill="#000000" font-family="sans-serif" font-size="13" lengthAdjust="spacing" textLength="3" x="448" y="1933.7878">&#160;</text><text fill="#000000" font-family="sans-serif" font-size="13" lengthAdjust="spacing" textLength="20" x="451" y="1933.7878">um</text><text fill="#000000" font-family="sans-serif" font-size="13" lengthAdjust="spacing" textLength="96" x="288" y="1951.4938">TLS-Verbindung</text><text fill="#000000" font-family="sans-serif" font-size="13" lengthAdjust="spacing" textLength="3" x="384" y="1951.4938">&#160;</text><text fill="#000000" font-family="sans-serif" font-size="13" lengthAdjust="spacing" textLength="29" x="387" y="1951.4938">aktiv</text><text fill="#000000" font-family="sans-serif" font-size="13" lengthAdjust="spacing" textLength="3" x="416" y="1951.4938">&#160;</text><text fill="#000000" font-family="sans-serif" font-size="13" lengthAdjust="spacing" textLength="14" x="419" y="1951.4938">zu</text><text fill="#000000" font-family="sans-serif" font-size="13" lengthAdjust="spacing" textLength="56" x="288" y="1969.1998">schlie&#223;en</text><!--SRC=[fLPDRzj64BtpLqpjIskOQffJ6zG5RCk1ZJY9ODaEK1GeLjAGN93SLNUNLkG_qqj-Wq- -wO_rxVB3fAmaRNgZg9ctxysycULtIoFIKj3aSae___JBooWIbTEgAcTi8fjBjHH6b5IAZs_PMf7oLDuplNpn8ihaWgbIXLGvBv0sTzhGtkLPF3xR8s7fnW81sKxEvL8eHtidHg_mClpRF4Sp_P7spcxY3pnRQkD4iKVxnuMSyqbHSKGq043GyN8Pykl77G40lMlEw7v5h1Q4auPqKYw5a_aVwhXo6Ily8I0XPFet7duG_qOhnNaRqlqQ1bsC9_5Oih8kHE5dBV7TwOJFuudH7zTG-BhGHXGVCkcynYqHvzVNapOI4E7fUPId64yX3xNgE3U_T-kjARmUX-Zm8ugEZaWK1Ih1KZ7TQZFZXLHffL9MT7GKHKex9eqQjXqxR5A93WxUXAnJhHpA5nzNTiN68PSMY4UEdMV5vj5QBX10xoftln3-QL6PUOOWLOkZEsrIjemcZ0uEW3mUPQD36k1PsdogDd-pGLBZH3fduG-g8FRcwZAU90BS4sryMxL2e64vpnmbcqT3LxfoKFRZjSvPnRUYa0l9neEpcuz8L7OKokO5zsLt9deIVdqvZNy7Cvd877h8IkH1GoQKr-Jvf9l7midqouY0gcrCqZfeN1PwxV3I0x09v6V2z6bbJoYjBKxVNqtZYSR8h4daJjv1bJl47mjHIWTQAdIZcvTJewsDtnkPIaLN_5V5rbcyHmCS5uKZrDoho3SFCBZwpEbz3JbSqD3md53adR9RmXUJsFU2wRuggVKatliQv5ebCgsCrz0K8a4Tm6sU2PZ8ZRu8NQ8ppt1sfxIz7B1vchp_nwS5_oeVZDznbSn45Vfq8goqyIsR6GmLHl2GJWii4qSdCBvqeKFUii7HOTK6JdNY6rsMbVAMXFjjMI7QX1dscvZYtze9VjK-qEOXIPG_1UD3w6BACtHUUxzSOgsZ9grnIAWS5iFeH55gTBNS7mkJOuaX9yp34sleRl5nPcUKL_GKWcdpefjPwKx0wE9eLOz5dKLndtSxBU0oydlBRoKW5DWETxeehDjyKWkPUjwRnpa8S-BnKEyewd7gy9RUE_NeiBbVXPA3r0NsMMgaMyUd6S_ptlpKcmlLpuolnComo6d_BLgyljAMdsKcd85a9X8thCgs8XNs57PG0tr8hqDcoKLTBtNlNTT8cUDOMAqPwM6nyIQW2g02oDSp5Bb362uYX1zsTp4rRekjlzeRQYjfuDPAaImx1I2QSg0wSFFD5Ws_VxgMmOmYbHp4hNHz0_Z5SJovY9irLECMcmSy-cEZ9hbVi5xult6YNhgmdvXcVhzblYBFemQz2VF_QYi80e8DxgkKiys3yQLia-8fzhw_v5jN0z7tQHVgzEJzsxwVDe_upaATCDYg_fW9TEfhSIjDA7_1K6WZ4CAxk-OU2uVYsCBoP_Jqwsnz6LgQmL9OPhH_ZajpFUOL3Mv7a-WY3PUHloMsArxkAEREekyAR8N-2ffXP-vS4hMoKD1UPPhulYnuMk03HhfciOJYzX5N_ZzJX8Y05a32ZXbKoIwnGBd9xsdeGMsjc9RWrntPINZkwcyzrdUzluNwxHjie6zaDzn5_udUJZoSEfeNOFedzePCrj__u7jjgiJl1bp3MwCNlce0JVvpKZ8-0llM_GS0]--></g></svg>